<svg width="32" height="32" viewBox="0 0 32 32" fill="none" xmlns="http://www.w3.org/2000/svg">
  <rect width="32" height="32" rx="8" fill="#000000"/>
  <path
    d="M16 4C9.373 4 4 9.373 4 16s5.373 12 12 12 12-5.373 12-12S22.627 4 16 4zm0 2c5.523 0 10 4.477 10 10s-4.477 10-10 10S6 21.523 6 16 10.477 6 16 6z"
    fill="#ffffff"
    opacity="0.1"
  />
  <path
    d="M16 8v4m0 8v4M8 16h4m8 0h4"
    stroke="#ffffff"
    strokeWidth="2"
    strokeLinecap="round"
  />
  <path
    d="M16 12c-2.21 0-4 1.79-4 4s1.79 4 4 4 4-1.79 4-4-1.79-4-4-4z"
    fill="#3B82F6"
  />
</svg> 